# Blender v2.79 (sub 0) OBJ File: 'PcMonitor.blend'
# www.blender.org
o ChamferBox002.001
v -0.226760 0.093926 0.012090
v -0.226760 -0.093927 0.012090
v 0.226758 -0.093927 0.012090
v 0.226758 0.093926 0.012090
v -0.226760 0.096289 0.011456
v -0.227940 0.095973 0.011456
v -0.228806 0.095107 0.011456
v -0.229122 0.093926 0.011456
v -0.229122 -0.093927 0.011456
v -0.228806 -0.095108 0.011456
v -0.227940 -0.095974 0.011456
v -0.226760 -0.096290 0.011456
v 0.226758 -0.096290 0.011456
v 0.227940 -0.095974 0.011456
v 0.228805 -0.095108 0.011456
v 0.229121 -0.093927 0.011456
v 0.229121 0.093926 0.011456
v 0.228805 0.095107 0.011456
v 0.227940 0.095973 0.011456
v 0.226758 0.096289 0.011456
v -0.226760 0.098018 0.009726
v -0.228806 0.097471 0.009726
v -0.230304 0.095973 0.009726
v -0.230853 0.093926 0.009726
v -0.230853 -0.093927 0.009726
v -0.230304 -0.095974 0.009726
v -0.228806 -0.097472 0.009726
v -0.226760 -0.098019 0.009726
v 0.226758 -0.098019 0.009726
v 0.228805 -0.097472 0.009726
v 0.230302 -0.095974 0.009726
v 0.230851 -0.093927 0.009726
v 0.230851 0.093926 0.009726
v 0.230302 0.095973 0.009726
v 0.228805 0.097471 0.009726
v 0.226758 0.098018 0.009726
v -0.226760 0.098652 0.007363
v -0.229122 0.098018 0.007363
v -0.230853 0.096289 0.007363
v -0.231486 0.093926 0.007363
v -0.231486 -0.093927 0.007363
v -0.230853 -0.096290 0.007363
v -0.229122 -0.098019 0.007363
v -0.226760 -0.098652 0.007363
v 0.226758 -0.098652 0.007363
v 0.229121 -0.098019 0.007363
v 0.230851 -0.096290 0.007363
v 0.231484 -0.093927 0.007363
v 0.231484 0.093926 0.007363
v 0.230851 0.096289 0.007363
v 0.229121 0.098018 0.007363
v 0.226758 0.098652 0.007363
v -0.226760 0.098652 0.004727
v -0.229122 0.098018 0.004727
v -0.230853 0.096289 0.004727
v -0.231486 0.093926 0.004727
v -0.231486 -0.093927 0.004727
v -0.230853 -0.096290 0.004727
v -0.229122 -0.098019 0.004727
v -0.226760 -0.098652 0.004727
v 0.226758 -0.098652 0.004727
v 0.229121 -0.098019 0.004727
v 0.230851 -0.096290 0.004727
v 0.231484 -0.093927 0.004727
v 0.231484 0.093926 0.004727
v 0.230851 0.096289 0.004727
v 0.229121 0.098018 0.004727
v 0.226758 0.098652 0.004727
v -0.226760 0.098018 0.002363
v -0.228806 0.097471 0.002363
v -0.230304 0.095973 0.002363
v -0.230853 0.093926 0.002363
v -0.230853 -0.093927 0.002363
v -0.230304 -0.095974 0.002363
v -0.228806 -0.097472 0.002363
v -0.226760 -0.098019 0.002363
v 0.226758 -0.098019 0.002363
v 0.228805 -0.097472 0.002363
v 0.230302 -0.095974 0.002363
v 0.230851 -0.093927 0.002363
v 0.230851 0.093926 0.002363
v 0.230302 0.095973 0.002363
v 0.228805 0.097471 0.002363
v 0.226758 0.098018 0.002363
v -0.226760 0.096289 0.000633
v -0.227940 0.095973 0.000633
v -0.228806 0.095107 0.000633
v -0.229122 0.093926 0.000633
v -0.229122 -0.093927 0.000633
v -0.228806 -0.095108 0.000633
v -0.227940 -0.095974 0.000633
v -0.226760 -0.096290 0.000633
v 0.226758 -0.096290 0.000633
v 0.227940 -0.095974 0.000633
v 0.228805 -0.095108 0.000633
v 0.229121 -0.093927 0.000633
v 0.229121 0.093926 0.000633
v 0.228805 0.095107 0.000633
v 0.227940 0.095973 0.000633
v 0.226758 0.096289 0.000633
v -0.226760 0.093926 0.000000
v -0.226760 -0.093927 0.000000
v 0.226758 -0.093927 0.000000
v 0.226758 0.093926 0.000000
v -0.059842 -0.003450 0.224788
v -0.059847 -0.003952 0.207231
v 0.059802 -0.004886 0.207231
v 0.059806 -0.004384 0.224788
v -0.059515 0.043564 0.009109
v 0.060134 0.043156 0.008269
v 0.060080 0.025617 0.009209
v -0.059568 0.026025 0.010049
v -0.059717 0.012696 0.205336
v 0.059932 0.011762 0.205336
v -0.059591 0.028784 0.200657
v 0.060058 0.027850 0.200657
v -0.059473 0.043850 0.193330
v 0.060175 0.042917 0.193330
v -0.059367 0.057464 0.183563
v 0.060282 0.056530 0.183563
v -0.059275 0.069234 0.171639
v 0.060374 0.068300 0.171639
v -0.059201 0.078823 0.157899
v 0.060449 0.077889 0.157899
v -0.059145 0.085954 0.142738
v 0.060505 0.085021 0.142738
v -0.059110 0.090424 0.126590
v 0.060539 0.089490 0.126590
v -0.059097 0.092103 0.109920
v 0.060553 0.091169 0.109920
v -0.059106 0.090945 0.093205
v 0.060543 0.090011 0.093205
v -0.059136 0.086982 0.076926
v 0.060512 0.086048 0.076926
v -0.059189 0.080327 0.061549
v 0.060460 0.079393 0.061549
v -0.059261 0.071172 0.047517
v 0.060389 0.070238 0.047517
v -0.059349 0.059780 0.035232
v 0.060300 0.058846 0.035232
v -0.059453 0.046476 0.025045
v 0.060196 0.045544 0.025045
v -0.059689 0.016154 0.222556
v -0.059542 0.035099 0.217046
v -0.059403 0.052842 0.208417
v -0.059278 0.068874 0.196916
v -0.059170 0.082734 0.182874
v -0.059082 0.094025 0.166695
v -0.059016 0.102423 0.148841
v -0.058975 0.107687 0.129826
v -0.058959 0.109664 0.110194
v -0.058970 0.108300 0.090511
v -0.059006 0.103632 0.071341
v -0.059067 0.095796 0.053233
v -0.059153 0.085015 0.036708
v -0.059256 0.071600 0.022241
v -0.059379 0.055934 0.010246
v 0.059959 0.015220 0.222556
v 0.060108 0.034165 0.217046
v 0.060246 0.051908 0.208417
v 0.060371 0.067940 0.196916
v 0.060479 0.081800 0.182874
v 0.060567 0.093092 0.166695
v 0.060632 0.101489 0.148841
v 0.060674 0.106753 0.129826
v 0.060689 0.108730 0.110194
v 0.060678 0.107366 0.090511
v 0.060642 0.102698 0.071341
v 0.060581 0.094862 0.053233
v 0.060497 0.084081 0.036708
v 0.060392 0.070666 0.022241
v 0.060270 0.055000 0.010246
vn -0.1089 -0.1088 0.9881
vn 0.1088 0.1088 0.9881
vn -0.1089 0.1088 0.9881
vn -0.0698 0.5141 0.8549
vn -0.2655 0.4598 0.8474
vn -0.4598 0.2655 0.8474
vn -0.5140 0.0698 0.8549
vn -0.5140 -0.0698 0.8549
vn -0.4598 -0.2655 0.8474
vn -0.2654 -0.4598 0.8474
vn -0.0698 -0.5141 0.8549
vn 0.1088 -0.1088 0.9881
vn 0.0698 -0.5141 0.8549
vn 0.2654 -0.4598 0.8474
vn 0.4596 -0.2656 0.8475
vn 0.5141 -0.0698 0.8549
vn 0.5141 0.0698 0.8549
vn 0.4599 0.2655 0.8474
vn 0.2654 0.4598 0.8474
vn 0.0698 0.5141 0.8549
vn -0.1129 0.8653 0.4884
vn -0.4379 0.7587 0.4823
vn -0.8653 0.1129 0.4884
vn -0.8653 -0.1129 0.4884
vn -0.7585 -0.4381 0.4824
vn -0.1128 -0.8654 0.4883
vn 0.1128 -0.8654 0.4883
vn 0.7586 -0.4380 0.4823
vn 0.8654 -0.1129 0.4883
vn 0.8654 0.1129 0.4883
vn 0.7586 0.4380 0.4823
vn 0.1129 0.8653 0.4884
vn -0.4959 0.8589 0.1278
vn -0.7585 0.4381 0.4824
vn -0.8589 0.4960 0.1278
vn -0.9835 0.1281 0.1281
vn -0.8589 -0.4960 0.1278
vn -0.4961 -0.8588 0.1278
vn -0.4379 -0.7587 0.4823
vn -0.1281 -0.9835 0.1281
vn 0.1281 -0.9835 0.1281
vn 0.4380 -0.7586 0.4823
vn 0.4959 -0.8589 0.1277
vn 0.8589 -0.4959 0.1278
vn 0.9835 -0.1281 0.1281
vn 0.8589 0.4958 0.1278
vn 0.4960 0.8589 0.1278
vn 0.4380 0.7587 0.4823
vn 0.1283 0.9834 0.1283
vn -0.1283 0.9834 -0.1283
vn -0.1283 0.9834 0.1283
vn -0.4959 0.8589 -0.1278
vn -0.8589 0.4960 -0.1278
vn -0.9835 0.1281 -0.1281
vn -0.9835 -0.1281 0.1281
vn -0.9835 -0.1281 -0.1281
vn -0.8589 -0.4960 -0.1278
vn -0.4958 -0.8590 -0.1277
vn -0.1281 -0.9835 -0.1281
vn 0.1281 -0.9835 -0.1281
vn 0.4959 -0.8589 -0.1277
vn 0.8589 -0.4958 -0.1278
vn 0.9835 -0.1281 -0.1281
vn 0.9835 0.1281 0.1281
vn 0.9835 0.1281 -0.1281
vn 0.8589 0.4958 -0.1278
vn 0.4960 0.8589 -0.1278
vn 0.1283 0.9834 -0.1283
vn -0.1129 0.8654 -0.4883
vn -0.7586 0.4381 -0.4823
vn -0.8654 0.1129 -0.4883
vn -0.8654 -0.1129 -0.4883
vn -0.7586 -0.4381 -0.4823
vn -0.4380 -0.7587 -0.4822
vn -0.1129 -0.8654 -0.4882
vn 0.4381 -0.7587 -0.4822
vn 0.7587 -0.4380 -0.4822
vn 0.8654 -0.1129 -0.4881
vn 0.8654 0.1129 -0.4881
vn 0.7587 0.4380 -0.4822
vn 0.1129 0.8654 -0.4883
vn -0.2654 0.4598 -0.8474
vn -0.4380 0.7588 -0.4822
vn -0.4598 0.2655 -0.8474
vn -0.5140 0.0698 -0.8549
vn -0.4598 -0.2655 -0.8474
vn -0.2654 -0.4598 -0.8474
vn -0.0698 -0.5141 -0.8549
vn 0.1128 -0.8654 -0.4882
vn 0.2654 -0.4598 -0.8474
vn 0.4599 -0.2655 -0.8474
vn 0.5141 -0.0698 -0.8549
vn 0.4599 0.2655 -0.8474
vn 0.2654 0.4598 -0.8474
vn 0.4381 0.7587 -0.4821
vn 0.0698 0.5141 -0.8549
vn -0.0698 0.5141 -0.8549
vn -0.1087 0.1087 -0.9881
vn -0.5140 -0.0698 -0.8549
vn -0.1087 -0.1087 -0.9881
vn 0.0698 -0.5141 -0.8549
vn 0.1087 -0.1087 -0.9881
vn 0.5141 0.0698 -0.8549
vn 0.1087 0.1087 -0.9881
vn -0.0078 -0.9996 0.0286
vn -0.0072 -0.0535 -0.9985
vn -0.0015 -0.1969 -0.9804
vn -0.0009 -0.1131 -0.9936
vn -0.0028 -0.3596 -0.9331
vn -0.0040 -0.5119 -0.8590
vn -0.0051 -0.6496 -0.7603
vn -0.0060 -0.7686 -0.6397
vn -0.0051 -0.6496 -0.7602
vn -0.0068 -0.8655 -0.5008
vn -0.0068 -0.8656 -0.5008
vn -0.0073 -0.9377 -0.3475
vn -0.0077 -0.9829 -0.1842
vn -0.0078 -0.9998 -0.0156
vn -0.0077 -0.9881 0.1534
vn -0.0074 -0.9481 0.3180
vn -0.0069 -0.8808 0.4735
vn -0.0062 -0.7882 0.6154
vn -0.0053 -0.6730 0.7396
vn -0.0067 -0.5918 0.8061
vn -0.0065 -0.5840 0.8117
vn 0.0003 -0.6187 0.7856
vn -1.0000 0.0078 0.0000
vn -0.9999 0.0110 0.0005
vn -1.0000 0.0065 0.0027
vn -1.0000 0.0074 0.0013
vn 0.0015 0.1969 0.9804
vn 0.0009 0.1131 0.9936
vn 0.0028 0.3596 0.9331
vn 0.0040 0.5119 0.8590
vn 0.0051 0.6496 0.7603
vn 0.0060 0.7686 0.6397
vn 0.0068 0.8655 0.5008
vn 0.0067 0.8655 0.5008
vn 0.0073 0.9377 0.3475
vn 0.0077 0.9829 0.1842
vn 0.0078 0.9998 0.0156
vn 0.0077 0.9881 -0.1534
vn 0.0074 0.9481 -0.3180
vn 0.0069 0.8808 -0.4735
vn 0.0062 0.7882 -0.6154
vn 0.0053 0.6730 -0.7396
vn 0.0051 0.4151 -0.9098
vn 0.0043 0.1916 -0.9815
vn -0.0024 0.3515 -0.9362
vn 1.0000 -0.0078 -0.0000
vn 1.0000 -0.0075 0.0004
vn 0.9992 -0.0054 -0.0384
vn 1.0000 -0.0032 -0.0044
vn 0.0074 -0.6373 0.7706
vn -1.0000 0.0002 0.0039
vn -0.0107 0.0550 -0.9984
vn 1.0000 -0.0093 -0.0013
s 1
f 2//1 4//2 1//3
f 1//3 5//4 6//5
f 1//3 6//5 7//6
f 1//3 7//6 8//7
f 8//7 2//1 1//3
f 2//1 9//8 10//9
f 2//1 10//9 11//10
f 2//1 11//10 12//11
f 12//11 3//12 2//1
f 3//12 13//13 14//14
f 3//12 14//14 15//15
f 3//12 15//15 16//16
f 16//16 4//2 3//12
f 4//2 17//17 18//18
f 4//2 18//18 19//19
f 4//2 19//19 20//20
f 20//20 1//3 4//2
f 21//21 6//5 5//4
f 22//22 7//6 6//5
f 7//6 24//23 8//7
f 24//23 9//8 8//7
f 25//24 10//9 9//8
f 26//25 11//10 10//9
f 11//10 28//26 12//11
f 28//26 13//13 12//11
f 29//27 14//14 13//13
f 14//14 31//28 15//15
f 15//15 32//29 16//16
f 32//29 17//17 16//16
f 33//30 18//18 17//17
f 34//31 19//19 18//18
f 19//19 36//32 20//20
f 36//32 5//4 20//20
f 21//21 38//33 22//22
f 38//33 23//34 22//22
f 39//35 24//23 23//34
f 40//36 25//24 24//23
f 25//24 42//37 26//25
f 26//25 43//38 27//39
f 27//39 44//40 28//26
f 44//40 29//27 28//26
f 45//41 30//42 29//27
f 46//43 31//28 30//42
f 47//44 32//29 31//28
f 48//45 33//30 32//29
f 33//30 50//46 34//31
f 34//31 51//47 35//48
f 51//47 36//32 35//48
f 52//49 21//21 36//32
f 53//50 38//33 37//51
f 54//52 39//35 38//33
f 55//53 40//36 39//35
f 56//54 41//55 40//36
f 57//56 42//37 41//55
f 58//57 43//38 42//37
f 59//58 44//40 43//38
f 60//59 45//41 44//40
f 61//60 46//43 45//41
f 62//61 47//44 46//43
f 63//62 48//45 47//44
f 64//63 49//64 48//45
f 65//65 50//46 49//64
f 66//66 51//47 50//46
f 67//67 52//49 51//47
f 68//68 37//51 52//49
f 69//69 54//52 53//50
f 54//52 71//70 55//53
f 55//53 72//71 56//54
f 72//71 57//56 56//54
f 73//72 58//57 57//56
f 74//73 59//58 58//57
f 75//74 60//59 59//58
f 76//75 61//60 60//59
f 61//60 78//76 62//61
f 62//61 79//77 63//62
f 63//62 80//78 64//63
f 80//78 65//65 64//63
f 81//79 66//66 65//65
f 82//80 67//67 66//66
f 67//67 84//81 68//68
f 84//81 53//50 68//68
f 69//69 86//82 70//83
f 86//82 71//70 70//83
f 87//84 72//71 71//70
f 88//85 73//72 72//71
f 73//72 90//86 74//73
f 90//86 75//74 74//73
f 91//87 76//75 75//74
f 92//88 77//89 76//75
f 77//89 94//90 78//76
f 94//90 79//77 78//76
f 95//91 80//78 79//77
f 96//92 81//79 80//78
f 81//79 98//93 82//80
f 82//80 99//94 83//95
f 99//94 84//81 83//95
f 100//96 69//69 84//81
f 85//97 101//98 86//82
f 86//82 101//98 87//84
f 87//84 101//98 88//85
f 101//98 89//99 88//85
f 89//99 102//100 90//86
f 90//86 102//100 91//87
f 91//87 102//100 92//88
f 102//100 93//101 92//88
f 93//101 103//102 94//90
f 94//90 103//102 95//91
f 95//91 103//102 96//92
f 103//102 97//103 96//92
f 97//103 104//104 98//93
f 98//93 104//104 99//94
f 99//94 104//104 100//96
f 104//104 85//97 100//96
f 103//102 101//98 104//104
f 2//1 3//12 4//2
f 8//7 9//8 2//1
f 12//11 13//13 3//12
f 16//16 17//17 4//2
f 20//20 5//4 1//3
f 21//21 22//22 6//5
f 22//22 23//34 7//6
f 7//6 23//34 24//23
f 24//23 25//24 9//8
f 25//24 26//25 10//9
f 26//25 27//39 11//10
f 11//10 27//39 28//26
f 28//26 29//27 13//13
f 29//27 30//42 14//14
f 14//14 30//42 31//28
f 15//15 31//28 32//29
f 32//29 33//30 17//17
f 33//30 34//31 18//18
f 34//31 35//48 19//19
f 19//19 35//48 36//32
f 36//32 21//21 5//4
f 21//21 37//51 38//33
f 38//33 39//35 23//34
f 39//35 40//36 24//23
f 40//36 41//55 25//24
f 25//24 41//55 42//37
f 26//25 42//37 43//38
f 27//39 43//38 44//40
f 44//40 45//41 29//27
f 45//41 46//43 30//42
f 46//43 47//44 31//28
f 47//44 48//45 32//29
f 48//45 49//64 33//30
f 33//30 49//64 50//46
f 34//31 50//46 51//47
f 51//47 52//49 36//32
f 52//49 37//51 21//21
f 53//50 54//52 38//33
f 54//52 55//53 39//35
f 55//53 56//54 40//36
f 56//54 57//56 41//55
f 57//56 58//57 42//37
f 58//57 59//58 43//38
f 59//58 60//59 44//40
f 60//59 61//60 45//41
f 61//60 62//61 46//43
f 62//61 63//62 47//44
f 63//62 64//63 48//45
f 64//63 65//65 49//64
f 65//65 66//66 50//46
f 66//66 67//67 51//47
f 67//67 68//68 52//49
f 68//68 53//50 37//51
f 69//69 70//83 54//52
f 54//52 70//83 71//70
f 55//53 71//70 72//71
f 72//71 73//72 57//56
f 73//72 74//73 58//57
f 74//73 75//74 59//58
f 75//74 76//75 60//59
f 76//75 77//89 61//60
f 61//60 77//89 78//76
f 62//61 78//76 79//77
f 63//62 79//77 80//78
f 80//78 81//79 65//65
f 81//79 82//80 66//66
f 82//80 83//95 67//67
f 67//67 83//95 84//81
f 84//81 69//69 53//50
f 69//69 85//97 86//82
f 86//82 87//84 71//70
f 87//84 88//85 72//71
f 88//85 89//99 73//72
f 73//72 89//99 90//86
f 90//86 91//87 75//74
f 91//87 92//88 76//75
f 92//88 93//101 77//89
f 77//89 93//101 94//90
f 94//90 95//91 79//77
f 95//91 96//92 80//78
f 96//92 97//103 81//79
f 81//79 97//103 98//93
f 82//80 98//93 99//94
f 99//94 100//96 84//81
f 100//96 85//97 69//69
f 101//98 102//100 89//99
f 102//100 103//102 93//101
f 103//102 104//104 97//103
f 104//104 101//98 85//97
f 103//102 102//100 101//98
f 105//105 107//105 108//105
f 109//106 111//106 112//106
f 114//107 106//108 113//107
f 115//109 114//107 113//107
f 118//110 115//109 117//110
f 119//111 118//110 117//110
f 121//112 120//113 119//111
f 124//114 121//112 123//115
f 125//116 124//114 123//115
f 128//117 125//116 127//117
f 129//118 128//117 127//117
f 132//119 129//118 131//119
f 133//120 132//119 131//119
f 136//121 133//120 135//121
f 138//122 135//121 137//122
f 140//123 137//122 139//123
f 141//124 140//123 139//123
f 112//125 142//126 141//124
f 113//127 105//127 143//127
f 144//127 113//127 143//127
f 117//127 144//127 145//127
f 119//127 145//127 146//127
f 121//127 146//127 147//127
f 123//127 147//127 148//127
f 149//127 123//127 148//127
f 127//127 149//127 150//127
f 151//127 127//127 150//127
f 152//127 129//127 151//127
f 153//127 131//127 152//127
f 154//127 133//127 153//127
f 137//127 154//127 155//127
f 139//127 155//127 156//127
f 157//128 139//127 156//127
f 109//129 141//130 157//128
f 158//131 105//132 108//132
f 159//133 143//131 158//131
f 145//134 159//133 160//134
f 161//135 145//134 160//134
f 162//136 146//135 161//135
f 148//137 162//136 163//138
f 164//139 148//137 163//138
f 150//140 164//139 165//140
f 166//141 150//140 165//140
f 167//142 151//141 166//141
f 153//143 167//142 168//143
f 154//144 168//143 169//144
f 170//145 154//144 169//144
f 156//146 170//145 171//146
f 172//147 156//146 171//146
f 110//148 157//149 172//147
f 114//150 108//150 107//150
f 159//150 114//150 116//150
f 118//150 159//150 116//150
f 161//150 118//150 120//150
f 122//150 161//150 120//150
f 124//150 162//150 122//150
f 164//150 124//150 126//150
f 165//150 126//150 128//150
f 166//150 128//150 130//150
f 167//150 130//150 132//150
f 168//150 132//150 134//150
f 169//150 134//150 136//150
f 138//150 169//150 136//150
f 140//150 170//150 138//150
f 142//151 171//150 140//150
f 110//152 142//151 111//153
f 105//105 106//105 107//105
f 109//106 110//106 111//106
f 114//107 107//108 106//108
f 115//109 116//109 114//107
f 118//110 116//109 115//109
f 119//111 120//113 118//110
f 121//112 122//112 120//113
f 124//114 122//112 121//112
f 125//116 126//116 124//114
f 128//117 126//116 125//116
f 129//118 130//118 128//117
f 132//119 130//118 129//118
f 133//120 134//120 132//119
f 136//121 134//120 133//120
f 138//122 136//121 135//121
f 140//123 138//122 137//122
f 141//124 142//126 140//123
f 112//125 111//154 142//126
f 113//127 106//127 105//127
f 144//127 115//127 113//127
f 117//127 115//127 144//127
f 119//127 117//127 145//127
f 121//127 119//127 146//127
f 123//127 121//127 147//127
f 149//127 125//127 123//127
f 127//127 125//127 149//127
f 151//127 129//127 127//127
f 152//127 131//127 129//127
f 153//127 133//127 131//127
f 154//127 135//127 133//127
f 137//127 135//127 154//127
f 139//127 137//127 155//127
f 157//128 141//130 139//127
f 109//129 112//155 141//130
f 158//131 143//131 105//132
f 159//133 144//133 143//131
f 145//134 144//133 159//133
f 161//135 146//135 145//134
f 162//136 147//136 146//135
f 148//137 147//136 162//136
f 164//139 149//139 148//137
f 150//140 149//139 164//139
f 166//141 151//141 150//140
f 167//142 152//142 151//141
f 153//143 152//142 167//142
f 154//144 153//143 168//143
f 170//145 155//145 154//144
f 156//146 155//145 170//145
f 172//147 157//149 156//146
f 110//148 109//156 157//149
f 114//150 158//150 108//150
f 159//150 158//150 114//150
f 118//150 160//150 159//150
f 161//150 160//150 118//150
f 122//150 162//150 161//150
f 124//150 163//150 162//150
f 164//150 163//150 124//150
f 165//150 164//150 126//150
f 166//150 165//150 128//150
f 167//150 166//150 130//150
f 168//150 167//150 132//150
f 169//150 168//150 134//150
f 138//150 170//150 169//150
f 140//150 171//150 170//150
f 142//151 172//157 171//150
f 110//152 172//157 142//151
