# Blender v2.79 (sub 0) OBJ File: 'LowPolySphere.blend'
# www.blender.org
o Sphere_Sphere.001
v 0.000000 0.191342 0.961940
v 0.000000 0.353553 0.853553
v 0.000000 0.461940 0.691342
v 0.000000 0.500000 0.500000
v 0.000000 0.461940 0.308658
v 0.000000 0.353553 0.146447
v 0.000000 0.191342 0.038060
v 0.000000 0.000000 0.000000
v -0.000000 0.000000 1.000000
v 0.073223 0.176777 0.961940
v 0.135299 0.326641 0.853553
v 0.176777 0.426777 0.691342
v 0.191342 0.461940 0.500000
v 0.176777 0.426777 0.308658
v 0.135299 0.326641 0.146447
v 0.073223 0.176777 0.038060
v 0.135299 0.135299 0.961940
v 0.250000 0.250000 0.853553
v 0.326641 0.326641 0.691342
v 0.353553 0.353553 0.500000
v 0.326641 0.326641 0.308658
v 0.250000 0.250000 0.146447
v 0.135299 0.135299 0.038060
v 0.176777 0.073223 0.961940
v 0.326641 0.135299 0.853553
v 0.426777 0.176777 0.691342
v 0.461940 0.191342 0.500000
v 0.426777 0.176777 0.308658
v 0.326641 0.135299 0.146447
v 0.176777 0.073223 0.038060
v 0.191342 0.000000 0.961940
v 0.353553 0.000000 0.853553
v 0.461940 0.000000 0.691342
v 0.500000 0.000000 0.500000
v 0.461940 0.000000 0.308658
v 0.353553 0.000000 0.146447
v 0.191342 0.000000 0.038060
v 0.176777 -0.073223 0.961940
v 0.326641 -0.135299 0.853553
v 0.426777 -0.176777 0.691342
v 0.461940 -0.191342 0.500000
v 0.426777 -0.176777 0.308658
v 0.326641 -0.135299 0.146447
v 0.176777 -0.073223 0.038060
v 0.135299 -0.135299 0.961940
v 0.250000 -0.250000 0.853553
v 0.326641 -0.326641 0.691342
v 0.353553 -0.353553 0.500000
v 0.326641 -0.326641 0.308658
v 0.250000 -0.250000 0.146447
v 0.135299 -0.135299 0.038060
v 0.073223 -0.176777 0.961940
v 0.135299 -0.326641 0.853553
v 0.176777 -0.426777 0.691342
v 0.191342 -0.461940 0.500000
v 0.176777 -0.426777 0.308658
v 0.135299 -0.326641 0.146447
v 0.073223 -0.176777 0.038060
v -0.000000 -0.191342 0.961940
v -0.000000 -0.353553 0.853553
v -0.000000 -0.461940 0.691342
v -0.000000 -0.500000 0.500000
v -0.000000 -0.461940 0.308658
v -0.000000 -0.353553 0.146447
v -0.000000 -0.191342 0.038060
v -0.073223 -0.176777 0.961940
v -0.135299 -0.326640 0.853553
v -0.176777 -0.426776 0.691342
v -0.191342 -0.461939 0.500000
v -0.176777 -0.426776 0.308658
v -0.135299 -0.326640 0.146447
v -0.073223 -0.176777 0.038060
v -0.135299 -0.135299 0.961940
v -0.250000 -0.250000 0.853553
v -0.326641 -0.326640 0.691342
v -0.353553 -0.353553 0.500000
v -0.326641 -0.326640 0.308658
v -0.250000 -0.250000 0.146447
v -0.135299 -0.135299 0.038060
v -0.176777 -0.073223 0.961940
v -0.326641 -0.135299 0.853553
v -0.426777 -0.176776 0.691342
v -0.461940 -0.191341 0.500000
v -0.426777 -0.176776 0.308658
v -0.326641 -0.135299 0.146447
v -0.176777 -0.073223 0.038060
v -0.191342 0.000000 0.961940
v -0.353553 0.000000 0.853553
v -0.461940 0.000000 0.691342
v -0.500000 0.000000 0.500000
v -0.461940 0.000000 0.308658
v -0.353553 0.000000 0.146447
v -0.191342 0.000000 0.038060
v -0.176777 0.073223 0.961940
v -0.326641 0.135299 0.853553
v -0.426776 0.176777 0.691342
v -0.461939 0.191342 0.500000
v -0.426776 0.176777 0.308658
v -0.326641 0.135299 0.146447
v -0.176777 0.073223 0.038060
v -0.135299 0.135299 0.961940
v -0.250000 0.250000 0.853553
v -0.326640 0.326641 0.691342
v -0.353553 0.353554 0.500000
v -0.326640 0.326641 0.308658
v -0.250000 0.250000 0.146447
v -0.135299 0.135299 0.038060
v -0.073223 0.176777 0.961940
v -0.135299 0.326641 0.853553
v -0.176776 0.426777 0.691342
v -0.191341 0.461940 0.500000
v -0.176776 0.426777 0.308658
v -0.135299 0.326641 0.146447
v -0.073223 0.176777 0.038060
vt 1.000000 0.937500
vt 0.937500 0.875000
vt 1.000000 0.875000
vt 1.000000 0.625000
vt 0.937500 0.562500
vt 1.000000 0.562500
vt 1.000000 0.750000
vt 0.937500 0.687500
vt 1.000000 0.687500
vt 0.937500 0.812500
vt 1.000000 0.812500
vt 0.913149 1.000000
vt 0.937500 0.937500
vt 1.000000 0.500000
vt 0.937500 0.625000
vt 0.937500 0.750000
vt 0.875000 0.687500
vt 0.875000 0.875000
vt 0.875000 0.812500
vt 0.875000 0.937500
vt 0.875000 0.562500
vt 0.875000 0.625000
vt 0.875000 0.750000
vt 0.812500 0.562500
vt 0.812500 0.625000
vt 0.812500 0.750000
vt 0.812500 0.875000
vt 0.812500 0.687500
vt 0.812500 0.812500
vt 0.812500 0.937500
vt 0.750000 0.750000
vt 0.750000 0.875000
vt 0.750000 0.625000
vt 0.750000 0.562500
vt 0.750000 0.687500
vt 0.750000 0.812500
vt 0.750000 0.937500
vt 0.687500 0.625000
vt 0.687500 0.562500
vt 0.687500 0.687500
vt 0.687500 0.875000
vt 0.687500 0.812500
vt 0.687500 0.937500
vt 0.687500 0.750000
vt 0.625000 0.812500
vt 0.625000 0.937500
vt 0.625000 0.562500
vt 0.625000 0.687500
vt 0.625000 0.625000
vt 0.625000 0.750000
vt 0.625000 0.875000
vt 0.562500 0.562500
vt 0.562500 0.687500
vt 0.562500 0.625000
vt 0.562500 0.750000
vt 0.562500 0.937500
vt 0.562500 0.875000
vt 0.562500 0.812500
vt 0.500000 0.937500
vt 0.500000 0.875000
vt 0.500000 0.625000
vt 0.500000 0.562500
vt 0.500000 0.687500
vt 0.500000 0.812500
vt 0.500000 0.750000
vt 0.437500 0.625000
vt 0.437500 0.562500
vt 0.437500 0.687500
vt 0.437500 0.812500
vt 0.437500 0.937500
vt 0.000000 0.500000
vt 0.437500 0.750000
vt 0.437500 0.875000
vt 1.375000 0.937500
vt 0.375000 0.562500
vt 0.375000 0.687500
vt 0.375000 0.625000
vt 0.375000 0.750000
vt 0.375000 0.875000
vt 0.375000 0.812500
vt 0.312500 0.625000
vt 0.312500 0.812500
vt 0.312500 0.750000
vt 0.312500 0.937500
vt 0.312500 0.875000
vt 0.312500 0.562500
vt 0.312500 0.687500
vt 1.312500 0.937500
vt 0.250000 0.562500
vt 0.250000 0.687500
vt 0.250000 0.812500
vt 1.250000 0.937500
vt 0.250000 0.625000
vt 0.250000 0.750000
vt 0.250000 0.875000
vt 0.187500 0.687500
vt 0.187500 0.812500
vt 1.187500 0.937500
vt 0.187500 0.562500
vt 0.187500 0.625000
vt 0.187500 0.750000
vt 0.187500 0.937500
vt 0.187500 0.875000
vt 0.125000 0.562500
vt 0.125000 0.687500
vt 0.125000 0.625000
vt 0.125000 0.812500
vt 0.125000 0.750000
vt 0.125000 0.937500
vt 0.125000 0.875000
vt 1.125000 0.937500
vt 0.062500 0.750000
vt 0.062500 0.937500
vt 0.062500 0.875000
vt 0.062500 0.562500
vt 0.062500 0.687500
vt 0.062500 0.812500
vt 1.062500 0.937500
vt 0.062500 0.625000
vt 0.000000 0.562500
vt 0.000000 0.687500
vt 0.000000 0.875000
vt 0.000000 0.812500
vt 0.000000 0.625000
vt 0.000000 0.750000
vt 1.062500 0.875000
vt 0.375000 0.937500
vt 0.250000 0.937500
vn 0.0000 0.4031 0.9152
vn 0.2751 0.6641 0.6952
vn 0.0000 0.7188 0.6952
vn 0.0000 0.7188 -0.6952
vn 0.1542 0.3724 -0.9152
vn 0.0000 0.4031 -0.9152
vn 0.0000 1.0000 0.0000
vn 0.3548 0.8567 -0.3743
vn 0.0000 0.9273 -0.3743
vn 0.3548 0.8567 0.3743
vn 0.0000 0.9273 0.3743
vn 0.0000 0.0000 1.0000
vn 0.1542 0.3724 0.9152
vn 0.0000 0.0000 -1.0000
vn 0.2751 0.6641 -0.6952
vn 0.3827 0.9239 0.0000
vn 0.6557 0.6557 -0.3743
vn 0.5083 0.5083 0.6952
vn 0.6557 0.6557 0.3743
vn 0.2850 0.2850 0.9152
vn 0.2850 0.2850 -0.9152
vn 0.5083 0.5083 -0.6952
vn 0.7071 0.7071 0.0000
vn 0.3724 0.1542 -0.9152
vn 0.6641 0.2751 -0.6952
vn 0.9239 0.3827 0.0000
vn 0.6641 0.2751 0.6952
vn 0.8567 0.3548 -0.3743
vn 0.8567 0.3548 0.3743
vn 0.3724 0.1542 0.9152
vn 1.0000 0.0000 0.0000
vn 0.7188 0.0000 0.6952
vn 0.7188 0.0000 -0.6952
vn 0.4031 0.0000 -0.9152
vn 0.9273 0.0000 -0.3743
vn 0.9273 0.0000 0.3743
vn 0.4031 0.0000 0.9152
vn 0.6641 -0.2751 -0.6952
vn 0.3724 -0.1542 -0.9152
vn 0.8567 -0.3548 -0.3743
vn 0.6641 -0.2751 0.6952
vn 0.8567 -0.3548 0.3743
vn 0.3724 -0.1542 0.9152
vn 0.9239 -0.3827 0.0000
vn 0.6557 -0.6557 0.3743
vn 0.2850 -0.2850 0.9152
vn 0.2850 -0.2850 -0.9152
vn 0.6557 -0.6557 -0.3743
vn 0.5083 -0.5083 -0.6952
vn 0.7071 -0.7071 0.0000
vn 0.5083 -0.5083 0.6952
vn 0.1542 -0.3724 -0.9152
vn 0.3548 -0.8567 -0.3743
vn 0.2751 -0.6641 -0.6952
vn 0.3827 -0.9239 0.0000
vn 0.1542 -0.3724 0.9152
vn 0.2751 -0.6641 0.6952
vn 0.3548 -0.8567 0.3743
vn 0.0000 -0.4031 0.9152
vn 0.0000 -0.7188 0.6952
vn 0.0000 -0.7188 -0.6952
vn 0.0000 -0.4031 -0.9152
vn 0.0000 -0.9273 -0.3743
vn 0.0000 -0.9273 0.3743
vn 0.0000 -1.0000 0.0000
vn -0.2751 -0.6641 -0.6952
vn -0.1542 -0.3724 -0.9152
vn -0.3548 -0.8567 -0.3743
vn -0.3548 -0.8567 0.3743
vn -0.1542 -0.3724 0.9152
vn -0.3827 -0.9239 0.0000
vn -0.2751 -0.6641 0.6952
vn -0.2850 -0.2850 0.9152
vn -0.2850 -0.2850 -0.9152
vn -0.6557 -0.6557 -0.3743
vn -0.5083 -0.5083 -0.6952
vn -0.7071 -0.7071 0.0000
vn -0.5083 -0.5083 0.6952
vn -0.6557 -0.6557 0.3743
vn -0.6641 -0.2751 -0.6952
vn -0.8567 -0.3548 0.3743
vn -0.9239 -0.3827 0.0000
vn -0.3724 -0.1542 0.9152
vn -0.6641 -0.2751 0.6952
vn -0.3724 -0.1542 -0.9152
vn -0.8567 -0.3548 -0.3743
vn -0.4031 0.0000 -0.9152
vn -0.9273 0.0000 -0.3743
vn -0.9273 0.0000 0.3743
vn -0.4031 0.0000 0.9152
vn -0.7188 0.0000 -0.6952
vn -1.0000 0.0000 0.0000
vn -0.7188 0.0000 0.6952
vn -0.8567 0.3548 -0.3743
vn -0.8567 0.3548 0.3743
vn -0.3724 0.1542 0.9152
vn -0.3724 0.1542 -0.9152
vn -0.6641 0.2751 -0.6952
vn -0.9239 0.3827 0.0000
vn -0.6641 0.2751 0.6952
vn -0.2850 0.2850 -0.9152
vn -0.6557 0.6557 -0.3743
vn -0.5083 0.5083 -0.6952
vn -0.6557 0.6557 0.3743
vn -0.7071 0.7071 0.0000
vn -0.2850 0.2850 0.9152
vn -0.5083 0.5083 0.6952
vn -0.3827 0.9239 0.0000
vn -0.1542 0.3724 0.9152
vn -0.2751 0.6641 0.6952
vn -0.1542 0.3724 -0.9152
vn -0.3548 0.8567 -0.3743
vn -0.3548 0.8567 0.3743
vn -0.2751 0.6641 -0.6952
s 1
f 1/1/1 11/2/2 2/3/3
f 6/4/4 16/5/5 7/6/6
f 4/7/7 14/8/8 5/9/9
f 2/3/3 12/10/10 3/11/11
f 1/1/1 9/12/12 10/13/13
f 8/14/14 7/6/6 16/5/5
f 6/4/4 14/8/8 15/15/15
f 3/11/11 13/16/16 4/7/7
f 13/16/16 21/17/17 14/8/8
f 12/10/10 18/18/18 19/19/19
f 10/13/13 9/12/12 17/20/20
f 8/14/14 16/5/5 23/21/21
f 14/8/8 22/22/22 15/15/15
f 12/10/10 20/23/23 13/16/16
f 10/13/13 18/18/18 11/2/2
f 15/15/15 23/21/21 16/5/5
f 8/14/14 23/21/21 30/24/24
f 21/17/17 29/25/25 22/22/22
f 19/19/19 27/26/26 20/23/23
f 17/20/20 25/27/27 18/18/18
f 23/21/21 29/25/25 30/24/24
f 20/23/23 28/28/28 21/17/17
f 18/18/18 26/29/29 19/19/19
f 17/20/20 9/12/12 24/30/30
f 26/29/29 34/31/31 27/26/26
f 24/30/30 32/32/32 25/27/27
f 30/24/24 36/33/33 37/34/34
f 28/28/28 34/31/31 35/35/35
f 25/27/27 33/36/36 26/29/29
f 24/30/30 9/12/12 31/37/37
f 8/14/14 30/24/24 37/34/34
f 28/28/28 36/33/33 29/25/25
f 37/34/34 43/38/38 44/39/39
f 34/31/31 42/40/40 35/35/35
f 33/36/36 39/41/41 40/42/42
f 31/37/37 9/12/12 38/43/43
f 8/14/14 37/34/34 44/39/39
f 35/35/35 43/38/38 36/33/33
f 33/36/36 41/44/44 34/31/31
f 31/37/37 39/41/41 32/32/32
f 39/41/41 47/45/45 40/42/42
f 38/43/43 9/12/12 45/46/46
f 8/14/14 44/39/39 51/47/47
f 43/38/38 49/48/48 50/49/49
f 40/42/42 48/50/50 41/44/44
f 39/41/41 45/46/46 46/51/51
f 43/38/38 51/47/47 44/39/39
f 42/40/40 48/50/50 49/48/48
f 8/14/14 51/47/47 58/52/52
f 50/49/49 56/53/53 57/54/54
f 47/45/45 55/55/55 48/50/50
f 46/51/51 52/56/56 53/57/57
f 51/47/47 57/54/54 58/52/52
f 48/50/50 56/53/53 49/48/48
f 46/51/51 54/58/58 47/45/45
f 45/46/46 9/12/12 52/56/56
f 53/57/57 59/59/59 60/60/60
f 58/52/52 64/61/61 65/62/62
f 55/55/55 63/63/63 56/53/53
f 53/57/57 61/64/64 54/58/58
f 52/56/56 9/12/12 59/59/59
f 8/14/14 58/52/52 65/62/62
f 57/54/54 63/63/63 64/61/61
f 54/58/58 62/65/65 55/55/55
f 65/62/62 71/66/66 72/67/67
f 62/65/65 70/68/68 63/63/63
f 60/60/60 68/69/69 61/64/64
f 59/59/59 9/12/12 66/70/70
f 8/71/14 65/62/62 72/67/67
f 63/63/63 71/66/66 64/61/61
f 61/64/64 69/72/71 62/65/65
f 60/60/60 66/70/70 67/73/72
f 66/70/70 9/12/12 73/74/73
f 8/71/14 72/67/67 79/75/74
f 71/66/66 77/76/75 78/77/76
f 68/69/69 76/78/77 69/72/71
f 66/70/70 74/79/78 67/73/72
f 71/66/66 79/75/74 72/67/67
f 69/72/71 77/76/75 70/68/68
f 67/73/72 75/80/79 68/69/69
f 77/76/75 85/81/80 78/77/76
f 76/78/77 82/82/81 83/83/82
f 74/79/78 80/84/83 81/85/84
f 78/77/76 86/86/85 79/75/74
f 76/78/77 84/87/86 77/76/75
f 74/79/78 82/82/81 75/80/79
f 73/74/73 9/12/12 80/88/83
f 8/71/14 79/75/74 86/86/85
f 85/81/80 93/89/87 86/86/85
f 83/83/82 91/90/88 84/87/86
f 81/85/84 89/91/89 82/82/81
f 80/88/83 9/12/12 87/92/90
f 8/71/14 86/86/85 93/89/87
f 85/81/80 91/90/88 92/93/91
f 83/83/82 89/91/89 90/94/92
f 80/84/83 88/95/93 81/85/84
f 90/94/92 98/96/94 91/90/88
f 88/95/93 96/97/95 89/91/89
f 87/92/90 9/12/12 94/98/96
f 8/71/14 93/89/87 100/99/97
f 92/93/91 98/96/94 99/100/98
f 89/91/89 97/101/99 90/94/92
f 88/95/93 94/102/96 95/103/100
f 92/93/91 100/99/97 93/89/87
f 8/71/14 100/99/97 107/104/101
f 99/100/98 105/105/102 106/106/103
f 97/101/99 103/107/104 104/108/105
f 95/103/100 101/109/106 102/110/107
f 100/99/97 106/106/103 107/104/101
f 97/101/99 105/105/102 98/96/94
f 95/103/100 103/107/104 96/97/95
f 94/98/96 9/12/12 101/111/106
f 103/107/104 111/112/108 104/108/105
f 102/110/107 108/113/109 109/114/110
f 106/106/103 114/115/111 107/104/101
f 104/108/105 112/116/112 105/105/102
f 102/110/107 110/117/113 103/107/104
f 101/111/106 9/12/12 108/118/109
f 8/71/14 107/104/101 114/115/111
f 105/105/102 113/119/114 106/106/103
f 113/119/114 7/120/6 114/115/111
f 111/112/108 5/121/9 112/116/112
f 110/117/113 2/122/3 3/123/11
f 108/118/109 9/12/12 1/1/1
f 8/71/14 114/115/111 7/120/6
f 112/116/112 6/124/4 113/119/114
f 111/112/108 3/123/11 4/125/7
f 109/126/110 1/1/1 2/3/3
f 1/1/1 10/13/13 11/2/2
f 6/4/4 15/15/15 16/5/5
f 4/7/7 13/16/16 14/8/8
f 2/3/3 11/2/2 12/10/10
f 6/4/4 5/9/9 14/8/8
f 3/11/11 12/10/10 13/16/16
f 13/16/16 20/23/23 21/17/17
f 12/10/10 11/2/2 18/18/18
f 14/8/8 21/17/17 22/22/22
f 12/10/10 19/19/19 20/23/23
f 10/13/13 17/20/20 18/18/18
f 15/15/15 22/22/22 23/21/21
f 21/17/17 28/28/28 29/25/25
f 19/19/19 26/29/29 27/26/26
f 17/20/20 24/30/30 25/27/27
f 23/21/21 22/22/22 29/25/25
f 20/23/23 27/26/26 28/28/28
f 18/18/18 25/27/27 26/29/29
f 26/29/29 33/36/36 34/31/31
f 24/30/30 31/37/37 32/32/32
f 30/24/24 29/25/25 36/33/33
f 28/28/28 27/26/26 34/31/31
f 25/27/27 32/32/32 33/36/36
f 28/28/28 35/35/35 36/33/33
f 37/34/34 36/33/33 43/38/38
f 34/31/31 41/44/44 42/40/40
f 33/36/36 32/32/32 39/41/41
f 35/35/35 42/40/40 43/38/38
f 33/36/36 40/42/42 41/44/44
f 31/37/37 38/43/43 39/41/41
f 39/41/41 46/51/51 47/45/45
f 43/38/38 42/40/40 49/48/48
f 40/42/42 47/45/45 48/50/50
f 39/41/41 38/43/43 45/46/46
f 43/38/38 50/49/49 51/47/47
f 42/40/40 41/44/44 48/50/50
f 50/49/49 49/48/48 56/53/53
f 47/45/45 54/58/58 55/55/55
f 46/51/51 45/46/46 52/56/56
f 51/47/47 50/49/49 57/54/54
f 48/50/50 55/55/55 56/53/53
f 46/51/51 53/57/57 54/58/58
f 53/57/57 52/56/56 59/59/59
f 58/52/52 57/54/54 64/61/61
f 55/55/55 62/65/65 63/63/63
f 53/57/57 60/60/60 61/64/64
f 57/54/54 56/53/53 63/63/63
f 54/58/58 61/64/64 62/65/65
f 65/62/62 64/61/61 71/66/66
f 62/65/65 69/72/71 70/68/68
f 60/60/60 67/73/72 68/69/69
f 63/63/63 70/68/68 71/66/66
f 61/64/64 68/69/69 69/72/71
f 60/60/60 59/59/59 66/70/70
f 71/66/66 70/68/68 77/76/75
f 68/69/69 75/80/79 76/78/77
f 66/70/70 73/127/73 74/79/78
f 71/66/66 78/77/76 79/75/74
f 69/72/71 76/78/77 77/76/75
f 67/73/72 74/79/78 75/80/79
f 77/76/75 84/87/86 85/81/80
f 76/78/77 75/80/79 82/82/81
f 74/79/78 73/127/73 80/84/83
f 78/77/76 85/81/80 86/86/85
f 76/78/77 83/83/82 84/87/86
f 74/79/78 81/85/84 82/82/81
f 85/81/80 92/93/91 93/89/87
f 83/83/82 90/94/92 91/90/88
f 81/85/84 88/95/93 89/91/89
f 85/81/80 84/87/86 91/90/88
f 83/83/82 82/82/81 89/91/89
f 80/84/83 87/128/90 88/95/93
f 90/94/92 97/101/99 98/96/94
f 88/95/93 95/103/100 96/97/95
f 92/93/91 91/90/88 98/96/94
f 89/91/89 96/97/95 97/101/99
f 88/95/93 87/128/90 94/102/96
f 92/93/91 99/100/98 100/99/97
f 99/100/98 98/96/94 105/105/102
f 97/101/99 96/97/95 103/107/104
f 95/103/100 94/102/96 101/109/106
f 100/99/97 99/100/98 106/106/103
f 97/101/99 104/108/105 105/105/102
f 95/103/100 102/110/107 103/107/104
f 103/107/104 110/117/113 111/112/108
f 102/110/107 101/109/106 108/113/109
f 106/106/103 113/119/114 114/115/111
f 104/108/105 111/112/108 112/116/112
f 102/110/107 109/114/110 110/117/113
f 105/105/102 112/116/112 113/119/114
f 113/119/114 6/124/4 7/120/6
f 111/112/108 4/125/7 5/121/9
f 110/117/113 109/114/110 2/122/3
f 112/116/112 5/121/9 6/124/4
f 111/112/108 110/117/113 3/123/11
f 109/126/110 108/118/109 1/1/1
