# Blender v2.78 (sub 0) OBJ File: 'CornerShelf.blend'
# www.blender.org
o Rectangle14_1
v -0.500000 0.000000 0.249940
v -0.500000 -0.000000 0.499941
v -0.500000 0.075000 0.499941
v -0.500000 0.075000 0.249940
v 0.500000 -0.000000 0.499941
v 0.500000 0.075000 0.499941
v 0.500000 0.000000 -0.500059
v 0.500000 0.075000 -0.500059
v 0.250000 0.000000 -0.500059
v 0.250000 0.075000 -0.500059
v 0.078150 0.000000 -0.480232
v 0.078150 0.075000 -0.480232
v -0.079668 0.000000 -0.423763
v -0.079668 0.075000 -0.423763
v -0.218930 0.000000 -0.335175
v -0.218930 0.075000 -0.335175
v -0.335115 0.000000 -0.218990
v -0.335115 0.075000 -0.218990
v -0.423705 0.000000 -0.079727
v -0.423705 0.075000 -0.079727
v -0.480173 0.000000 0.078090
v -0.480173 0.075000 0.078090
vn -0.9984 0.0000 -0.0574
vn -1.0000 0.0000 0.0000
vn 0.0000 0.0000 1.0000
vn 1.0000 0.0000 0.0000
vn 0.0000 0.0000 -1.0000
vn -0.0574 0.0000 -0.9984
vn -0.2272 0.0000 -0.9738
vn -0.4395 0.0000 -0.8982
vn -0.6257 0.0000 -0.7801
vn -0.7801 0.0000 -0.6257
vn -0.8982 0.0000 -0.4395
vn -0.9738 0.0000 -0.2272
vn 0.0000 -1.0000 -0.0000
vn 0.0000 1.0000 0.0000
s 1
f 1//1 2//2 3//2
f 1//1 3//2 4//1
f 2//3 5//3 6//3
f 2//3 6//3 3//3
f 5//4 7//4 8//4
f 5//4 8//4 6//4
f 7//5 9//6 10//6
f 7//5 10//6 8//5
f 9//6 11//7 12//7
f 9//6 12//7 10//6
f 11//7 13//8 14//8
f 11//7 14//8 12//7
f 13//8 15//9 16//9
f 13//8 16//9 14//8
f 15//9 17//10 18//10
f 15//9 18//10 16//9
f 17//10 19//11 20//11
f 17//10 20//11 18//10
f 19//11 21//12 22//12
f 19//11 22//12 20//11
f 21//12 1//1 4//1
f 21//12 4//1 22//12
f 5//13 2//13 9//13
f 5//13 9//13 7//13
f 1//13 21//13 9//13
f 1//13 9//13 2//13
f 21//13 19//13 11//13
f 21//13 11//13 9//13
f 19//13 15//13 13//13
f 19//13 13//13 11//13
f 17//13 15//13 19//13
f 6//14 8//14 10//14
f 6//14 10//14 3//14
f 4//14 3//14 10//14
f 4//14 10//14 22//14
f 22//14 10//14 12//14
f 22//14 12//14 20//14
f 20//14 12//14 14//14
f 20//14 14//14 16//14
f 18//14 20//14 16//14
